<svg width="174" height="58" viewBox="0 0 174 58" fill="none" xmlns="http://www.w3.org/2000/svg">
<rect width="174" height="58" fill="#E5E5E5"/>
<rect x="0.816528" width="173" height="55" rx="10" transform="rotate(0.850598 0.816528 0)" fill="#503BCE"/>
<rect x="0.816528" width="173" height="55" rx="10" transform="rotate(0.850598 0.816528 0)" fill="url(#paint0_linear)"/>
<path d="M53.5352 37.7656C52.5859 38.9023 51.2441 39.7871 49.5098 40.4199C47.7754 41.041 45.8535 41.3516 43.7441 41.3516C41.5293 41.3516 39.584 40.8711 37.9082 39.9102C36.2441 38.9375 34.9551 37.5312 34.041 35.6914C33.1387 33.8516 32.6758 31.6895 32.6523 29.2051V27.4648C32.6523 24.9102 33.0801 22.7012 33.9355 20.8379C34.8027 18.9629 36.0449 17.5332 37.6621 16.5488C39.291 15.5527 41.1953 15.0547 43.375 15.0547C46.4102 15.0547 48.7832 15.7812 50.4941 17.2344C52.2051 18.6758 53.2188 20.7793 53.5352 23.5449H48.4023C48.168 22.0801 47.6465 21.0078 46.8379 20.3281C46.041 19.6484 44.9395 19.3086 43.5332 19.3086C41.7402 19.3086 40.375 19.9824 39.4375 21.3301C38.5 22.6777 38.0254 24.6816 38.0137 27.3418V28.9766C38.0137 31.6602 38.5234 33.6875 39.543 35.0586C40.5625 36.4297 42.0566 37.1152 44.0254 37.1152C46.0059 37.1152 47.418 36.6934 48.2617 35.8496V31.4375H43.4629V27.5527H53.5352V37.7656ZM56.6992 31.3145C56.6992 29.4277 57.0625 27.7461 57.7891 26.2695C58.5156 24.793 59.5586 23.6504 60.918 22.8418C62.2891 22.0332 63.877 21.6289 65.6816 21.6289C68.248 21.6289 70.3398 22.4141 71.957 23.9844C73.5859 25.5547 74.4941 27.6875 74.6816 30.3828L74.7168 31.6836C74.7168 34.6016 73.9023 36.9453 72.2734 38.7148C70.6445 40.4727 68.459 41.3516 65.7168 41.3516C62.9746 41.3516 60.7832 40.4727 59.1426 38.7148C57.5137 36.957 56.6992 34.5664 56.6992 31.543V31.3145ZM61.7793 31.6836C61.7793 33.4883 62.1191 34.8711 62.7988 35.832C63.4785 36.7812 64.4512 37.2559 65.7168 37.2559C66.9473 37.2559 67.9082 36.7871 68.5996 35.8496C69.291 34.9004 69.6367 33.3887 69.6367 31.3145C69.6367 29.5449 69.291 28.1738 68.5996 27.2012C67.9082 26.2285 66.9355 25.7422 65.6816 25.7422C64.4395 25.7422 63.4785 26.2285 62.7988 27.2012C62.1191 28.1621 61.7793 29.6562 61.7793 31.6836ZM92.418 36.7637H103.615V41H87.1445V15.4062H92.418V36.7637ZM111.684 41H106.586V21.9805H111.684V41ZM106.287 17.0586C106.287 16.2969 106.539 15.6699 107.043 15.1777C107.559 14.6855 108.256 14.4395 109.135 14.4395C110.002 14.4395 110.693 14.6855 111.209 15.1777C111.725 15.6699 111.982 16.2969 111.982 17.0586C111.982 17.832 111.719 18.4648 111.191 18.957C110.676 19.4492 109.99 19.6953 109.135 19.6953C108.279 19.6953 107.588 19.4492 107.061 18.957C106.545 18.4648 106.287 17.832 106.287 17.0586ZM123.004 34.7949L126.537 21.9805H131.846L125.43 41H120.578L114.162 21.9805H119.471L123.004 34.7949ZM142.604 41.3516C139.814 41.3516 137.541 40.4961 135.783 38.7852C134.037 37.0742 133.164 34.7949 133.164 31.9473V31.4551C133.164 29.5449 133.533 27.8398 134.271 26.3398C135.01 24.8281 136.053 23.668 137.4 22.8594C138.76 22.0391 140.307 21.6289 142.041 21.6289C144.643 21.6289 146.688 22.4492 148.176 24.0898C149.676 25.7305 150.426 28.0566 150.426 31.0684V33.1426H138.314C138.479 34.3848 138.971 35.3809 139.791 36.1309C140.623 36.8809 141.672 37.2559 142.938 37.2559C144.895 37.2559 146.424 36.5469 147.525 35.1289L150.021 37.9238C149.26 39.002 148.229 39.8457 146.928 40.4551C145.627 41.0527 144.186 41.3516 142.604 41.3516ZM142.023 25.7422C141.016 25.7422 140.195 26.082 139.562 26.7617C138.941 27.4414 138.543 28.4141 138.367 29.6797H145.434V29.2754C145.41 28.1504 145.105 27.2832 144.52 26.6738C143.934 26.0527 143.102 25.7422 142.023 25.7422Z" fill="white"/>
<defs>
<linearGradient id="paint0_linear" x1="5.81653" y1="6" x2="162.817" y2="55" gradientUnits="userSpaceOnUse">
<stop stop-color="#FF00F5" stop-opacity="0.78"/>
<stop offset="0.932292" stop-color="#FF002E"/>
</linearGradient>
</defs>
</svg>
